HIERARCHY
ROOT Hips
{
	OFFSET 0.000000 0.000000 0.000000 
	CHANNELS 6 Xposition Yposition Zposition Zrotation Yrotation Xrotation
	JOINT LeftUpLeg
	{
		OFFSET 0.000000 0.000000 0.000000 
		CHANNELS 3 Zrotation Yrotation Xrotation
		JOINT LeftLeg
		{
			OFFSET 3.811170 -8.520760 0.839290 
			CHANNELS 3 Zrotation Yrotation Xrotation
			JOINT LeftFoot
			{
				OFFSET 2.562200 -7.039590 0.000000 
				CHANNELS 3 Zrotation Yrotation Xrotation
				JOINT LeftToeBase
				{
					OFFSET 0.157640 -0.433110 2.322550 
					CHANNELS 3 Zrotation Yrotation Xrotation
					End Site
					{
						OFFSET 0.000000 0.000000 0.000000 
					}
				}
			}
		}
	}
	JOINT RigthUpLeg
	{
		OFFSET 0.000000 0.000000 0.000000 
		CHANNELS 3 Zrotation Yrotation Xrotation
		JOINT RightLeg
		{
			OFFSET -3.848050 -8.780180 0.839290 
			CHANNELS 3 Zrotation Yrotation Xrotation
			JOINT RightFoot
			{
				OFFSET -2.568260 -7.056230 0.000000 
				CHANNELS 3 Zrotation Yrotation Xrotation
				JOINT RightToeBase
				{
					OFFSET -0.164730 -0.452590 2.363150 
					CHANNELS 3 Zrotation Yrotation Xrotation
					End Site
					{
						OFFSET 0.000000 0.000000 0.000000 
					}
				}
			}
		}
	}
	JOINT Spine
	{
		OFFSET 0.028270 2.035590 -0.193380 
		CHANNELS 3 Zrotation Yrotation Xrotation
		JOINT Spine1
		{
			OFFSET 0.056720 2.048850 -0.042750 
			CHANNELS 3 Zrotation Yrotation Xrotation
			JOINT Neck1
			{
				OFFSET -0.054170 1.746240 0.172020 
				CHANNELS 3 Zrotation Yrotation Xrotation
				JOINT Head
				{
					OFFSET 0.104070 1.761360 -0.123970 
					CHANNELS 3 Zrotation Yrotation Xrotation
					End Site
					{
						OFFSET 0.000000 0.000000 0.000000 
					}
				}
			}
			JOINT LeftArm
			{
				OFFSET 3.362410 1.200890 -0.311210 
				CHANNELS 3 Zrotation Yrotation Xrotation
				JOINT LeftForeArm
				{
					OFFSET 4.983000 -0.000000 -0.000000 
					CHANNELS 3 Zrotation Yrotation Xrotation
					JOINT LeftHand
					{
						OFFSET 3.483560 -0.000000 -0.000000 
						CHANNELS 3 Zrotation Yrotation Xrotation
						JOINT LeftHandIndex1
						{
							OFFSET 0.715260 -0.000000 -0.000000 
							CHANNELS 3 Zrotation Yrotation Xrotation
							End Site
							{
								OFFSET 0.000000 0.000000 0.000000 
							}
						}
					}
				}
			}
			JOINT RightArm
			{
				OFFSET -3.136600 1.374050 -0.404650 
				CHANNELS 3 Zrotation Yrotation Xrotation
				JOINT RightForeArm
				{
					OFFSET -5.241900 -0.000000 -0.000000 
					CHANNELS 3 Zrotation Yrotation Xrotation
					JOINT RightHand
					{
						OFFSET -3.444170 -0.000000 -0.000000 
						CHANNELS 3 Zrotation Yrotation Xrotation
						JOINT RightHandIndex1
						{
							OFFSET -0.622530 -0.000000 -0.000000 
							CHANNELS 3 Zrotation Yrotation Xrotation
							End Site
							{
								OFFSET 0.000000 0.000000 0.000000 
							}
						}
					}
				}
			}
		}
	}
}
MOTION
Frames: 10
Frame Time: 0.008333
-2.459858 14.507683 5.742495 170.276443 -42.221558 178.379807 -71.443977 -22.509991 -27.981155 -21.109577 4.247989 32.401119 -41.952419 22.111387 -8.359641 17.345963 -4.860641 -6.959207 -18.135616 -14.921743 5.487944 68.758820 -2.213631 -35.373489 16.799318 -7.301348 -82.620239 10.053261 -0.915704 -0.728887 -18.179539 -11.515927 -8.121440 -3.239218 12.895175 3.872290 2.791416 6.356963 4.222851 -14.740811 19.759035 13.379198 -77.387009 -11.253489 6.938563 18.983898 -45.619587 -16.985966 -1.516676 -13.038762 7.796657 -11.757029 2.763410 2.647239 127.755981 15.220037 37.248692 64.932114 78.989532 -167.589935 18.235142 -7.893143 7.233139 -19.701868 10.300810 22.205822 
-2.541255 14.517689 5.701934 170.337723 -39.876362 178.507690 -59.979305 4.821050 -51.807487 -25.876366 -21.536190 35.912079 -44.349083 1.552683 -22.516890 -16.712103 20.884804 19.744213 1.395044 -6.030154 9.576820 77.737259 -30.304949 -13.787302 31.332996 -18.959429 -90.560455 5.522721 -4.375887 -13.455360 -3.372820 -9.299183 -2.799877 11.581057 7.176883 2.951991 5.216709 -21.045097 1.169405 8.798221 9.324613 19.768028 -70.388321 0.894116 -14.683351 16.850981 -61.562649 -6.730306 -10.084218 14.153043 16.003983 -7.763137 21.385584 -9.480601 130.137634 16.196419 69.643295 57.379734 86.620750 172.460938 4.937336 -1.805262 -1.616304 6.194942 -19.141376 -21.182163 
-2.618448 14.527208 5.658350 170.375656 -37.557163 178.634201 -50.522167 -33.516636 -29.705137 -29.753128 -2.799227 44.137039 -32.733593 -16.833746 1.951618 19.818241 -17.266018 6.297364 -33.326565 -32.875050 7.402577 87.675064 -3.000647 -34.770500 26.819780 -19.792294 -115.695030 -2.456482 11.364699 18.145790 -1.261950 -1.966850 -21.921501 13.658158 -17.683493 -10.812587 0.465479 -4.032843 14.290323 -15.576027 -0.121914 6.572687 -46.275055 17.431297 -2.989519 -14.672268 -53.142139 -5.737850 -6.401711 5.477742 12.562277 2.723918 17.032974 19.921490 114.788528 -2.308149 39.053219 77.076767 80.956665 -179.463211 -9.446526 -4.818729 -18.463751 -19.748531 -19.712093 -6.484248 
-2.691251 14.536220 5.611611 170.386566 -35.262676 178.753448 -31.947382 -30.319477 -29.357994 -7.045619 5.124689 15.454186 -31.567797 24.214869 -1.240897 12.008435 -3.272891 -4.915018 -33.663692 -9.585562 28.921074 80.991524 -26.749420 -23.974867 16.214190 -14.410990 -104.616730 -21.923246 -9.960045 -3.574007 -2.865340 -14.851554 18.848936 -1.662074 -2.870052 -6.273694 -21.233166 2.200366 10.454096 9.563181 5.989977 -9.336706 -70.147324 -23.495344 -10.738141 -2.925385 -83.131218 19.539654 2.314364 -21.941181 -3.119489 -12.927366 16.542051 7.869521 107.949120 9.550416 56.929459 75.030045 76.120361 178.259995 20.066961 12.751089 13.715946 20.241545 17.909775 -0.998912 
-2.764054 14.545231 5.564871 170.413406 -32.941769 178.892181 -58.280174 2.353623 -33.181927 -18.190872 14.176210 12.672295 -31.335012 17.965612 -5.209208 -0.546675 -12.556917 19.188162 8.436909 -14.545998 24.480494 76.503792 -4.197743 -12.558449 47.097126 7.611608 -83.531242 -18.038153 14.675859 -8.901893 5.691662 3.404291 5.222991 10.374904 9.826241 -6.325868 -13.212113 -4.066978 -12.034806 3.735281 -21.282656 -11.002045 -42.924278 2.887544 -4.933704 14.827124 -53.080376 16.047611 -12.867829 1.835112 10.246890 -11.305519 17.670183 8.728969 131.922699 5.158690 50.796532 57.478973 75.576584 -158.134201 -0.786700 8.009822 -9.643649 -9.153782 -2.176322 -4.973273 
-2.836857 14.554243 5.518131 170.454636 -30.603720 179.049667 -58.481705 -5.810165 -26.676620 14.497242 -16.413849 25.617847 6.865476 13.452651 1.228583 22.039282 -19.532206 -11.931728 -12.037875 -13.137666 7.989563 85.254837 7.526408 -33.578476 14.929432 -19.553600 -106.186935 4.661546 4.577314 20.539482 2.911981 11.779340 11.735585 4.806462 2.870416 -1.149147 18.358746 1.756879 7.812352 -5.591632 0.584471 -13.563828 -37.482723 1.746346 -2.845266 -20.128025 -89.236664 0.388404 -21.829008 22.194761 21.364311 -0.125943 -21.739813 -4.925995 121.640312 4.352930 50.936096 68.312119 76.332520 -167.360168 -5.325356 13.777179 -17.052780 11.295513 -9.871465 -12.745970 
-2.906213 14.562422 5.467940 170.488632 -28.315804 179.197021 -43.635208 -0.425184 -36.416386 8.291425 17.200636 24.719898 0.537247 7.184137 -7.182353 17.428825 -21.114187 -12.465518 -22.451452 -29.929832 16.896936 97.364609 -7.878403 -17.419365 17.244728 -10.056960 -93.457275 -13.163608 -5.491726 -15.277832 -5.840416 -11.600772 13.044780 13.639243 -8.346523 9.856166 8.563974 16.115746 -11.762775 8.768308 -5.704487 -14.073784 -58.703911 -9.636328 18.488148 6.184053 -67.690826 17.058237 4.498293 7.440529 22.378736 7.745865 -8.314525 -19.152485 123.728951 15.428457 57.584267 44.716663 62.932369 -177.692871 19.213263 20.241976 -20.440210 -17.366179 -6.282646 -1.591028 
-2.971644 14.569655 5.413820 170.512299 -26.077612 179.326004 -31.031912 -22.558950 -45.644676 17.416559 7.709300 32.354034 7.785947 -12.879378 -13.338951 4.778903 -17.365108 -1.029821 -12.570014 -0.309995 18.413349 62.088688 -6.050996 -42.871372 36.325611 -13.014801 -89.382507 -7.364371 5.499308 -4.786949 22.364388 2.142697 2.287491 -5.643076 -14.029256 -0.121635 19.405285 8.696938 17.959087 20.949408 21.528456 -1.583558 -60.273418 -17.029387 6.572990 -17.944098 -50.472641 1.041277 -20.217821 -21.699085 4.626697 -17.783876 -1.779147 19.778896 117.104935 19.051010 61.755749 63.405281 88.828125 165.472275 -13.141356 15.836541 -5.606557 6.474027 -6.821619 21.916824 
-3.037075 14.576888 5.359700 170.548111 -23.823706 179.467407 -55.150642 2.631481 -72.306618 8.804097 -18.113773 28.146742 -24.662445 -17.783285 -4.863128 16.159981 14.303857 5.790114 -11.428624 -27.770332 -0.941420 89.936607 5.290634 -44.332371 14.386371 -12.277836 -112.456947 -5.777725 5.219336 -17.753813 13.205142 25.181341 12.060786 -21.066446 -16.244871 -9.859747 16.413412 -9.025366 7.317456 -5.283207 -19.316795 -0.893913 -42.560581 1.958320 18.526131 -4.788807 -64.917725 -9.337919 -4.261189 10.247553 17.411358 -14.229565 14.230373 15.437129 139.947922 24.601963 59.695305 58.111385 99.433205 -173.428848 -3.201230 7.299521 7.726520 9.332381 0.712457 8.029881 
-3.102506 14.584121 5.305580 170.595444 -21.561075 179.621628 -18.356598 -15.222814 -28.550743 -5.772914 -11.080671 11.692433 -20.976736 16.039009 -15.143954 19.340113 -19.895592 17.400026 -15.669215 8.304338 28.094353 66.282013 -2.178550 -43.812935 54.398823 -17.093672 -82.834160 -6.652825 -16.622564 -10.479372 -20.174391 10.760117 5.906609 11.080496 12.791810 18.783842 8.316868 -19.213037 4.208497 -4.934134 8.755269 -2.749814 -40.024319 10.165702 0.848107 8.362258 -81.264023 -17.187599 17.581881 -12.014106 8.734794 -14.168779 -18.257849 -9.053341 110.933533 34.068691 31.793121 68.846298 96.286163 166.473709 2.075398 4.195574 15.658503 16.673985 -16.534973 20.907398 
